<mxfile host="app.diagrams.net" agent="Mozilla/5.0 (Windows NT 10.0; Win64; x64) AppleWebKit/537.36 (KHTML, like Gecko) Chrome/131.0.0.0 Safari/537.36" version="26.0.6">
  <diagram name="Halaman-1" id="1utaJIoIHonQ7S7XrzGS">
    <mxGraphModel dx="1050" dy="569" grid="1" gridSize="10" guides="1" tooltips="1" connect="1" arrows="1" fold="1" page="1" pageScale="1" pageWidth="827" pageHeight="1169" math="0" shadow="0">
      <root>
        <mxCell id="0" />
        <mxCell id="1" parent="0" />
        <mxCell id="38Y2rK4nvV_GqymlI0lO-3" value="" style="verticalLabelPosition=bottom;html=1;verticalAlign=top;align=center;strokeColor=none;fillColor=#00BEF2;shape=mxgraph.azure.user;" vertex="1" parent="1">
          <mxGeometry x="10" y="370" width="47.5" height="50" as="geometry" />
        </mxCell>
        <mxCell id="38Y2rK4nvV_GqymlI0lO-8" value="" style="rounded=0;whiteSpace=wrap;html=1;" vertex="1" parent="1">
          <mxGeometry x="120" y="306" width="310" height="186" as="geometry" />
        </mxCell>
        <mxCell id="38Y2rK4nvV_GqymlI0lO-9" value="" style="sketch=0;outlineConnect=0;fontColor=#232F3E;gradientColor=none;fillColor=#232F3D;strokeColor=none;dashed=0;verticalLabelPosition=bottom;verticalAlign=top;align=center;html=1;fontSize=12;fontStyle=0;aspect=fixed;pointerEvents=1;shape=mxgraph.aws4.git_repository;" vertex="1" parent="1">
          <mxGeometry x="320" y="360" width="60" height="78" as="geometry" />
        </mxCell>
        <mxCell id="38Y2rK4nvV_GqymlI0lO-17" style="edgeStyle=orthogonalEdgeStyle;rounded=0;orthogonalLoop=1;jettySize=auto;html=1;exitX=1;exitY=0.5;exitDx=0;exitDy=0;exitPerimeter=0;" edge="1" parent="1" source="38Y2rK4nvV_GqymlI0lO-10" target="38Y2rK4nvV_GqymlI0lO-9">
          <mxGeometry relative="1" as="geometry">
            <mxPoint x="175" y="360" as="sourcePoint" />
            <mxPoint x="270" y="400" as="targetPoint" />
          </mxGeometry>
        </mxCell>
        <mxCell id="38Y2rK4nvV_GqymlI0lO-10" value="" style="verticalLabelPosition=bottom;html=1;verticalAlign=top;align=center;strokeColor=none;fillColor=#00BEF2;shape=mxgraph.azure.github_code;pointerEvents=1;" vertex="1" parent="1">
          <mxGeometry x="140" y="374" width="50" height="50" as="geometry" />
        </mxCell>
        <mxCell id="38Y2rK4nvV_GqymlI0lO-42" style="edgeStyle=orthogonalEdgeStyle;rounded=0;orthogonalLoop=1;jettySize=auto;html=1;" edge="1" parent="1" source="38Y2rK4nvV_GqymlI0lO-12" target="38Y2rK4nvV_GqymlI0lO-41">
          <mxGeometry relative="1" as="geometry" />
        </mxCell>
        <mxCell id="38Y2rK4nvV_GqymlI0lO-12" value="" style="rounded=0;whiteSpace=wrap;html=1;" vertex="1" parent="1">
          <mxGeometry x="390" y="170" width="290" height="110" as="geometry" />
        </mxCell>
        <mxCell id="38Y2rK4nvV_GqymlI0lO-13" value="" style="rounded=0;whiteSpace=wrap;html=1;" vertex="1" parent="1">
          <mxGeometry x="120" y="170" width="190" height="110" as="geometry" />
        </mxCell>
        <mxCell id="38Y2rK4nvV_GqymlI0lO-16" value="" style="endArrow=classic;html=1;rounded=0;" edge="1" parent="1" target="38Y2rK4nvV_GqymlI0lO-10">
          <mxGeometry width="50" height="50" relative="1" as="geometry">
            <mxPoint x="57.5" y="398.5" as="sourcePoint" />
            <mxPoint x="147.5" y="398.5" as="targetPoint" />
          </mxGeometry>
        </mxCell>
        <mxCell id="38Y2rK4nvV_GqymlI0lO-19" value="" style="image;sketch=0;aspect=fixed;html=1;points=[];align=center;fontSize=12;image=img/lib/mscae/Docker.svg;" vertex="1" parent="1">
          <mxGeometry x="187" y="188.1" width="83" height="68.06" as="geometry" />
        </mxCell>
        <mxCell id="38Y2rK4nvV_GqymlI0lO-20" style="edgeStyle=orthogonalEdgeStyle;rounded=0;orthogonalLoop=1;jettySize=auto;html=1;" edge="1" parent="1" target="38Y2rK4nvV_GqymlI0lO-19">
          <mxGeometry relative="1" as="geometry">
            <mxPoint x="344" y="370" as="sourcePoint" />
            <mxPoint x="244.01999999999998" y="201.01840000000004" as="targetPoint" />
          </mxGeometry>
        </mxCell>
        <mxCell id="38Y2rK4nvV_GqymlI0lO-21" value="" style="endArrow=classic;html=1;rounded=0;" edge="1" parent="1" source="38Y2rK4nvV_GqymlI0lO-19" target="38Y2rK4nvV_GqymlI0lO-9">
          <mxGeometry width="50" height="50" relative="1" as="geometry">
            <mxPoint x="390" y="320" as="sourcePoint" />
            <mxPoint x="440" y="270" as="targetPoint" />
            <Array as="points">
              <mxPoint x="350" y="222" />
            </Array>
          </mxGeometry>
        </mxCell>
        <mxCell id="38Y2rK4nvV_GqymlI0lO-22" value="" style="endArrow=classic;html=1;rounded=0;" edge="1" parent="1" source="38Y2rK4nvV_GqymlI0lO-9" target="38Y2rK4nvV_GqymlI0lO-12">
          <mxGeometry width="50" height="50" relative="1" as="geometry">
            <mxPoint x="738.96" y="418.07" as="sourcePoint" />
            <mxPoint x="429.99999999999994" y="370.002" as="targetPoint" />
            <Array as="points">
              <mxPoint x="535" y="400" />
            </Array>
          </mxGeometry>
        </mxCell>
        <mxCell id="38Y2rK4nvV_GqymlI0lO-23" value="" style="image;aspect=fixed;html=1;points=[];align=center;fontSize=12;image=img/lib/azure2/general/Resource_Groups.svg;" vertex="1" parent="1">
          <mxGeometry x="420" y="188.1" width="68" height="64" as="geometry" />
        </mxCell>
        <mxCell id="38Y2rK4nvV_GqymlI0lO-24" value="" style="image;aspect=fixed;html=1;points=[];align=center;fontSize=12;image=img/lib/azure2/app_services/App_Services.svg;" vertex="1" parent="1">
          <mxGeometry x="560" y="191" width="68" height="68" as="geometry" />
        </mxCell>
        <mxCell id="38Y2rK4nvV_GqymlI0lO-25" value="Push Code" style="text;html=1;align=center;verticalAlign=middle;whiteSpace=wrap;rounded=0;" vertex="1" parent="1">
          <mxGeometry x="70" y="408" width="60" height="30" as="geometry" />
        </mxCell>
        <mxCell id="38Y2rK4nvV_GqymlI0lO-26" value="developer" style="text;html=1;align=center;verticalAlign=middle;whiteSpace=wrap;rounded=0;" vertex="1" parent="1">
          <mxGeometry x="10" y="408" width="60" height="42" as="geometry" />
        </mxCell>
        <mxCell id="38Y2rK4nvV_GqymlI0lO-27" value="git Repo" style="text;html=1;align=center;verticalAlign=middle;whiteSpace=wrap;rounded=0;" vertex="1" parent="1">
          <mxGeometry x="135" y="428" width="60" height="30" as="geometry" />
        </mxCell>
        <mxCell id="38Y2rK4nvV_GqymlI0lO-28" value="build and push" style="text;html=1;align=center;verticalAlign=middle;whiteSpace=wrap;rounded=0;" vertex="1" parent="1">
          <mxGeometry x="220" y="320" width="90" height="30" as="geometry" />
        </mxCell>
        <mxCell id="38Y2rK4nvV_GqymlI0lO-29" value="pull" style="text;html=1;align=center;verticalAlign=middle;whiteSpace=wrap;rounded=0;" vertex="1" parent="1">
          <mxGeometry x="334" y="306" width="60" height="30" as="geometry" />
        </mxCell>
        <mxCell id="38Y2rK4nvV_GqymlI0lO-30" value="Git hub Action workflow" style="text;html=1;align=center;verticalAlign=middle;whiteSpace=wrap;rounded=0;" vertex="1" parent="1">
          <mxGeometry x="300" y="438" width="110" height="30" as="geometry" />
        </mxCell>
        <mxCell id="38Y2rK4nvV_GqymlI0lO-31" value="auto trigger/manual trigger" style="text;html=1;align=center;verticalAlign=middle;whiteSpace=wrap;rounded=0;" vertex="1" parent="1">
          <mxGeometry x="185" y="394" width="160" height="30" as="geometry" />
        </mxCell>
        <mxCell id="38Y2rK4nvV_GqymlI0lO-32" value="resources group" style="text;html=1;align=center;verticalAlign=middle;whiteSpace=wrap;rounded=0;" vertex="1" parent="1">
          <mxGeometry x="404" y="250" width="98" height="30" as="geometry" />
        </mxCell>
        <mxCell id="38Y2rK4nvV_GqymlI0lO-33" value="web app" style="text;html=1;align=center;verticalAlign=middle;whiteSpace=wrap;rounded=0;" vertex="1" parent="1">
          <mxGeometry x="560" y="252.1" width="60" height="30" as="geometry" />
        </mxCell>
        <mxCell id="38Y2rK4nvV_GqymlI0lO-34" value="GIT Environment" style="text;html=1;align=center;verticalAlign=middle;whiteSpace=wrap;rounded=0;fontStyle=1" vertex="1" parent="1">
          <mxGeometry x="140" y="492" width="260" height="30" as="geometry" />
        </mxCell>
        <mxCell id="38Y2rK4nvV_GqymlI0lO-35" value="&lt;b&gt;Azure Environment&lt;/b&gt;" style="text;html=1;align=center;verticalAlign=middle;whiteSpace=wrap;rounded=0;" vertex="1" parent="1">
          <mxGeometry x="460" y="140" width="120" height="30" as="geometry" />
        </mxCell>
        <mxCell id="38Y2rK4nvV_GqymlI0lO-36" value="&lt;b&gt;Docker Hub&lt;/b&gt;" style="text;html=1;align=center;verticalAlign=middle;whiteSpace=wrap;rounded=0;" vertex="1" parent="1">
          <mxGeometry x="174.5" y="140" width="115" height="30" as="geometry" />
        </mxCell>
        <mxCell id="38Y2rK4nvV_GqymlI0lO-37" value="Deploy" style="text;html=1;align=center;verticalAlign=middle;whiteSpace=wrap;rounded=0;" vertex="1" parent="1">
          <mxGeometry x="438" y="370" width="60" height="30" as="geometry" />
        </mxCell>
        <mxCell id="38Y2rK4nvV_GqymlI0lO-41" value="" style="sketch=0;outlineConnect=0;fontColor=#232F3E;gradientColor=none;fillColor=#7AA116;strokeColor=none;dashed=0;verticalLabelPosition=bottom;verticalAlign=top;align=center;html=1;fontSize=12;fontStyle=0;aspect=fixed;pointerEvents=1;shape=mxgraph.aws4.http_protocol;" vertex="1" parent="1">
          <mxGeometry x="690" y="394" width="78" height="78" as="geometry" />
        </mxCell>
        <UserObject label="https://webapp-flexidev.azurewebsites.net" link="https://webapp-flexidev.azurewebsites.net/" id="38Y2rK4nvV_GqymlI0lO-45">
          <mxCell style="text;whiteSpace=wrap;" vertex="1" parent="1">
            <mxGeometry x="597" y="468" width="230" height="40" as="geometry" />
          </mxCell>
        </UserObject>
      </root>
    </mxGraphModel>
  </diagram>
</mxfile>
